<svg xmlns="http://www.w3.org/2000/svg" width="608" height="348" viewBox="0 0 608 348"><defs><style>@import url('https://fonts.googleapis.com/css2?family=Permanent+Marker&amp;display=swap');
  .scrawl-label { font-family: 'Permanent Marker', 'Comic Sans MS', cursive; }
</style></defs><g class="scrawl-groups"><g data-id="phase_intake"><g><path d="M40.60059351138771 39.249388195946814 L568.0176065485924 40.28570710606873 L568.9677170436829 307.0694156188518 L40.56133759431541 308.32701519913974" stroke="none" stroke-width="0" fill="#f7fafc"/><path d="M39.8182624681294 39.82759907409549 C227.48963157638912 39.612482270034555, 414.35319383040076 39.31149405840278, 567.5617783267796 40.20161197826266 M39.98386005960405 39.9489371470362 C146.84332345418633 40.35230390801012, 253.83149374268947 40.29554516806185, 568.0737599595636 39.827008095160124 M567.2053075123442 39.960881327245765 C568.0276563108158 127.54361678049192, 569.3300962452117 216.1030001485014, 567.0724885702243 308.01991889807135 M568.3368240345712 40.10175870849977 C567.8106023896905 136.31388636625874, 568.0486809482111 232.1007996800772, 568.0131755572788 307.769687328354 M568.0914005239308 307.83469066306947 C457.6382732312381 307.6432961729562, 347.36695822492237 307.74898062978144, 39.8908212287724 308.23153407260776 M567.8769927986712 307.9193846539408 C402.84255698911846 307.5693932063442, 237.52662787817417 307.4517468626362, 39.76811752162874 307.92088654078543 M40.3215666208192 307.8983170834368 C40.491457230698515 228.79673487592135, 40.38731725933423 147.73466491399935, 40.88975735298123 39.39182575688958 M40.24312997625424 307.8982644082057 C39.80186951462999 229.82153420236065, 40.19507813587194 152.31940494583196, 39.679668748844826 40.264863008667675" stroke="#cbd5e0" stroke-width="1.5" fill="none"/></g><text class="scrawl-label" x="304.2" y="54.3" text-anchor="middle" dominant-baseline="central" font-family="&quot;Permanent Marker&quot;, cursive" font-size="12.97" fill="#718096" letter-spacing="0.001em" transform="rotate(0.5 304.2 54.3)"><tspan dx="0.00 0.10 -0.05 0.01 0.19 0.10 0.22 -0.12 0.13 0.06 0.09 0.10 -0.01 0.17 -0.09 0.12 0.00" dy="0.0 -0.0 -0.6 -0.4 0.3 -0.0 0.4 0.5 0.1 -0.2 -0.1 -0.0 -0.5 0.3 0.6 0.0 -0.4" rotate="0.0 0.1 -0.8 -0.4 0.7 0.1 0.8 0.9 0.3 -0.1 0.0 0.1 -0.6 0.5 -1.0 0.2 -0.5">Intake and triage</tspan></text></g><g data-id="lane_release"><g><path d="M39.72741253934801 196.13068686760963 L402.9857863839716 195.09454069174825 L403.17373138032855 308.3874598387629 L39.873876922950146 308.71294772662225" stroke="none" stroke-width="0" fill="#f7fafc"/><path d="M40.29066477382051 195.37944428984108 C134.76326307754738 195.59012511191045, 229.6440387870117 195.86844969852783, 401.8254349167008 194.30820454165118 M40.30532047411371 195.26221746283073 C118.04963380514279 195.35579980397068, 196.43300996418571 195.09372891773242, 401.8412778312469 194.80328091700414 M402.0225268486887 195.19351305328308 C402.3892907405175 239.244781895075, 403.0585648680009 283.07036065813156, 402.9213526491076 308.21372507177296 M402.10564298909156 194.49272643942385 C402.4657651356496 221.04407436521726, 402.389503335122 245.85171520635487, 402.3607504097745 308.5830302240327 M401.93705148507667 308.30261373551565 C301.9601089129445 308.5577185011478, 202.0277215640986 307.8588733555255, 40.11527019292302 308.46788578716917 M401.6510196928703 307.8027324633322 C329.46073702126773 307.7632785964043, 256.38639654882644 307.78093244249436, 40.308495093699605 308.04787485370935 M40.061786306276915 307.2867902930826 C40.49928180122599 271.7078171825968, 38.84474840307459 237.5409225480631, 39.78528327979147 196.00919881425799 M39.75855945628136 307.8235141577199 C39.79378150218054 275.26185257202013, 40.61595300548598 243.54716993682086, 39.4171699134633 195.2088927866891" stroke="#cbd5e0" stroke-width="1.5" fill="none"/></g><text class="scrawl-label" x="220.2" y="208.4" text-anchor="middle" dominant-baseline="central" font-family="&quot;Permanent Marker&quot;, cursive" font-size="13.28" fill="#718096" letter-spacing="0.010em" transform="rotate(-0.6 220.2 208.4)"><tspan dx="0.00 0.03 0.14 0.14 0.21 0.01 -0.05 0.07 0.12 0.14 0.04 -0.12" dy="0.0 -0.3 0.1 0.1 0.4 -0.4 -0.6 -0.1 0.0 0.1 -0.3 0.5" rotate="0.0 -0.3 0.3 0.3 0.8 -0.4 -0.8 -0.1 0.2 0.3 -0.2 0.9">Release lane</tspan></text></g></g><g class="scrawl-edges"><g data-from="intake" data-to="draft"><g><path d="M208 101.5 C210.2155987629086 100.9082530126147, 220.56699345720972 101.83248156451003, 220.95737999840094 100.70154831991907 M207.48541052253233 102.75147353845554 C209.04068029279446 102.55109261889419, 220.5616381842851 101.03072612176834, 222.66319730671157 100.95148853855068 M221 101.5 C220.98090963173127 101.29035917921587, 220.4757731810424 102.15585857294103, 219.85866283345524 102.72701872704333 M221.16586144836674 102.09192552736562 C222.51200923622312 100.23810020930478, 220.32567484747514 102.45007419185092, 219.64447975020016 102.97577130104487 M221 101.5 C223.07213485662862 102.11880177071784, 233.01795742620197 100.85172268614055, 234.71445218371755 100.7378641364648 M219.55487326654412 102.32300232962993 C220.19049932189418 100.15599469222336, 232.46751963679094 102.4601873401542, 232.60766131058324 103.12650902718052" stroke="#2d3748" stroke-width="1.3273742675781248" fill="none"/></g><g opacity="0.6"><path d="M208 101.5 C208.94250378391033 99.99596612305034, 219.73982610475912 99.98054027826787, 220.95745177811702 100.97308592996654 M206.81734062744277 100.70763651897254 C207.5647067386335 102.94314988890743, 221.97863809726329 99.98725901240866, 219.23858671991016 102.05907185912461 M221 101.5 C220.08590002510252 100.99289858887735, 219.0170427318854 100.94881850627574, 220.4196281756448 101.55282499659263 M221.8358654596607 101.69725391632876 C221.09467458435103 99.8127550676356, 220.55571639629724 101.62279164054722, 219.96585204258295 100.29180000027588 M221 101.5 C220.16556321827363 101.6322545499181, 233.92059125475868 101.94377754813561, 234.09994010718407 100.57056549374813 M221.65416570266558 102.97618805797832 C222.47108310305853 100.41284279914265, 232.955140105315 100.67416684898834, 234.99041963393788 99.82273398247199" stroke="#2d3748" stroke-width="1.0618994140625" fill="none"/></g><g><g><path d="M233.68642040650315 101.61498955052389 C231.37325351359598 102.50898428448028, 229.07411407607012 104.75361434167006, 224.37675859663082 105.73454882399037 M233.69759031109783 101.82511194973668 C230.479042549181 102.87306010372573, 227.34210285034115 104.55083636078517, 224.67346030193272 105.71135985663808" stroke="#2d3748" stroke-width="1.3364013671875" fill="none"/></g><g><path d="M233.19069913516518 101.17167344520219 C230.3593912762817 99.66571519370113, 227.91647371805598 98.26553838280648, 224.7297270009259 96.9146965375845 M233.84385477395995 101.51421221824937 C229.9404962807293 99.75476963171187, 226.39396198202408 98.19918922833611, 224.69302048415022 97.47557687921851" stroke="#2d3748" stroke-width="1.3364013671875" fill="none"/></g></g></g><g data-from="draft" data-to="legal"><g><path d="M374 92.5 C375.6799566295913 93.74861299881374, 385.54741876514476 91.34764784934701, 388.0746562058625 92.58443730895193 M372.9165745993107 92.79352824844533 C375.71689178498474 92.21491122589956, 385.11713525100123 93.52332131789234, 385.50692955334546 92.87207012489066 M387 92.5 C387.92085600648664 92.86002788635629, 385.3080920508028 100.3935986576376, 386.1726099015598 101.414862879143 M385.78204061739984 91.46738371823628 C387.26241351838024 93.90557818008985, 387.86115545789187 101.61603746285545, 386.8835766444025 101.80871403823298 M387 101.5 C387.1796493362932 100.73747500304158, 398.87915062889175 100.50151602164512, 401.0735240009281 100.90320846732389 M385.6718241906534 101.7937931641332 C387.50406876843306 102.32514578878876, 399.9211017011545 102.02515356117166, 400.79940632244904 102.4948895208577" stroke="#2d3748" stroke-width="1.162451171875" fill="none"/></g><g opacity="0.6"><path d="M374 92.5 C374.6041122049397 92.97767384658113, 387.5469826922746 92.48121407686652, 388.0747168641862 92.81390347500549 M375.0505857713843 93.76493064834216 C374.46960234831863 92.546223999138, 386.31458829359264 92.64152672249207, 385.7162781920699 93.8080469058329 M387 92.5 C387.16451723272223 92.60865518993654, 386.7739458874711 102.07214651887519, 386.6466604993339 100.42259615968726 M386.3482356711357 93.83243344160385 C389.1680351445531 93.5461350852962, 384.95219732783255 100.91693226244698, 387.15515621599866 102.64394893030108 M387 101.5 C387.4219873340999 103.02488412287569, 399.6419323442974 101.42437028945118, 400.5542230828302 100.76183071076396 M387.4458568436544 102.34577572293531 C386.3279463376503 102.54219841123242, 400.3331713197311 100.51585518247084, 399.70962773353995 102.80635170680753" stroke="#2d3748" stroke-width="0.9299609375" fill="none"/></g><g><g><path d="M400.6123140963408 101.10641783801117 C396.4876994335661 102.64108467781413, 393.8063130459269 104.163159578431, 391.80941280829853 106.24173322889338 M399.7971258424632 101.47912457291726 C397.69102592663006 102.74110233810028, 395.01776453548507 103.80948785705279, 391.3521097955223 105.53358256348373" stroke="#2d3748" stroke-width="1.171478271484375" fill="none"/></g><g><path d="M400.2381755351408 102.09683400154145 C396.7921869097993 100.81946530050466, 393.79026156691054 98.53681819174969, 391.56510729495136 98.2551508743031 M399.91190974211816 101.23139492766262 C397.15204798157623 100.47967112588802, 394.6513486266691 99.86017694875383, 390.83547627452566 98.66555335223754" stroke="#2d3748" stroke-width="1.171478271484375" fill="none"/></g></g></g><g data-from="draft" data-to="security"><g><path d="M313 129 C312.68096702337755 131.42493863184836, 303.48758198621954 175.24055851383747, 312.0131604871079 179.6375367597555 M312.363430872499 129.45874356750383 C311.75082419186697 130.43955248740616, 305.8602564234049 178.36335556033754, 311.5324499668806 178.73481589387453 M313 179 C321.42433983447114 182.65401767512833, 460.62683845317844 177.04389403155776, 469.74306640800734 178.20580992703245 M313.2150534277892 178.56912267674707 C321.8308525054207 182.2025937883199, 460.77056134826785 178.08006611550562, 469.4166212397881 179.99178207203997 M470 179 C478.0121041531124 182.86009246544702, 471.6690477860065 225.3853353021239, 471.7021280781611 230.61601364833953 M468.97166276851027 178.96239890453046 C475.9817255382792 183.28928957130535, 470.23763195402324 228.39503117233542, 471.3147872886615 229.25556119702088" stroke="#2d3748" stroke-width="1.057000732421875" fill="none"/></g><g opacity="0.6"><path d="M313 129 C311.25283680241137 130.40155506764387, 306.1419041239327 176.74531157096428, 312.0132410080301 179.9421417369449 M311.6140046139446 130.74823217033884 C314.21466273156614 130.87935379437224, 303.3302625374017 177.1928168825137, 311.8103499223294 179.97727874106474 M313 179 C320.4203375499854 182.32033286321968, 462.5726868636893 175.68986277265032, 470.37234511172664 180.47084543172133 M313.96664933577904 178.1263886589579 C320.2409173607909 181.7254508718999, 461.0286169477088 177.15203856666992, 469.777129678282 176.980961520497 M470 179 C478.33379584981685 182.31429438956584, 469.09938229762025 226.61037866267145, 471.01278181403814 230.42834167450275 M471.32660330329253 179.69512842899385 C478.5400347556236 179.45786265597323, 470.78463397582755 226.391512282719, 469.86816015436455 229.669011831937" stroke="#2d3748" stroke-width="0.8456005859375001" fill="none"/></g><g><g><path d="M469.97151787354494 228.36919348453657 C468.57133919433267 226.26223598727105, 468.2952125768796 223.5275616220331, 466.12286865557604 218.41241993655422 M469.9512531196947 228.84932181064224 C469.14521956964865 226.71165002151562, 467.8054842476419 224.0671390537673, 466.2511692992513 218.74284648879475" stroke="#2d3748" stroke-width="1.06602783203125" fill="none"/></g><g><path d="M469.6539276091921 229.3125059996274 C471.02307734981946 226.60528288396497, 472.46902173964634 224.73373733378486, 474.2383688309432 221.23873818983628 M470.05865490350277 229.23169982402888 C471.04862182576926 226.93654327652757, 472.25443841798966 224.49537513020672, 474.1229059423721 220.76834784375754" stroke="#2d3748" stroke-width="1.06602783203125" fill="none"/></g></g></g><g data-from="legal" data-to="approve"><g><path d="M470 129 C470.94418671291584 132.79004181605836, 479.474152367835 175.28653565586123, 468.72363954195987 179.97547252188073 M470.0748999370387 128.1858031782975 C469.6321577568722 132.9989069271637, 478.66033751480796 177.52357988265982, 471.29562534172675 177.5603895348018 M470 179 C460.25272212146314 180.87240112418644, 304.44136482261615 177.21424801205126, 295.04020083490263 177.7855269756996 M469.51703484342954 180.00379535258094 C460.3574198594905 180.10507994743222, 303.6779889367116 177.7454349529856, 295.4897557792648 178.6783681074705 M295 179 C285.4255091750596 180.4210650808424, 294.4029030852276 226.044470575248, 295.42886089574256 230.0187856926785 M294.991286233112 179.00185523059758 C287.22322083229125 181.4220655498765, 296.28910608589655 226.76336596421416, 294.55041990318415 227.6866551461225" stroke="#2d3748" stroke-width="1.14473876953125" fill="none"/></g><g opacity="0.6"><path d="M470 129 C469.88952659338673 132.03428312101596, 478.7889085854013 176.39778098614872, 468.7236990058688 180.20042030110665 M469.5214560172745 129.13807782666765 C471.4516782814231 130.281446110131, 479.83421167364736 176.65914858378855, 471.50085172509705 178.47793612522514 M470 179 C462.15671088115005 180.62597817308153, 303.2329201619678 176.21430924708395, 295.50491696732416 179.45823341454008 M470.07208102795875 179.67684063566077 C462.2255181513858 182.79496435321624, 303.868560458381 177.06009573726672, 295.7559877147363 179.49715650374696 M295 179 C285.6630753285636 182.66343314118487, 295.15066497041363 226.9491530461429, 294.9197854608533 229.88019178614732 M294.08495208195956 179.54296877648295 C286.0702572671067 181.63484421887844, 293.6508119422281 225.28378697304058, 293.48209999511624 227.99198437285435" stroke="#2d3748" stroke-width="0.9157910156250001" fill="none"/></g><g><g><path d="M295.627203221689 229.3520743997955 C293.76733258354477 227.25585206980838, 293.36375402209256 225.9721257036579, 291.45435003766045 220.02372772041483 M295.0097725875439 228.70476871989197 C293.59064508994766 225.34568568081434, 292.83062519148433 222.15646114474276, 291.94557164258856 220.42325804910962" stroke="#2d3748" stroke-width="1.153765869140625" fill="none"/></g><g><path d="M295.2641577909781 229.01923700293986 C295.51891848969257 226.94570413517707, 296.2633078549035 226.00808714878724, 297.8495300583865 220.68362157020795 M295.12481935650715 229.11327882332037 C295.8560066887521 226.81577399532844, 296.17997583209683 224.99527758115295, 298.0917980929157 220.2268269398048" stroke="#2d3748" stroke-width="1.153765869140625" fill="none"/></g></g></g><g data-from="security" data-to="approve"><g><path d="M400 256.5 C398.02111111387177 255.22745978407042, 387.9226382302406 254.90997166077318, 386.60002571941294 256.69828889237954 M399.8457298087472 256.3342547739483 C399.9301829962692 257.1265998603919, 386.50815217413344 254.49582354781546, 386.06285067966473 255.13241243123895 M387 256.5 C387.23968984514437 258.0564544146274, 388.06618153704375 263.6532348935602, 387.8756077306792 265.71642557345206 M386.979360764372 256.0954845888812 C385.05708310168666 257.67893404623396, 387.59374999682956 263.3330766359244, 386.2038151249747 265.8941154879755 M387 265.5 C385.8405484548613 265.9732719810922, 373.5436840664872 265.78722696778107, 374.15503957750826 266.9175088894604 M387.2803494558536 265.75331373381346 C385.6805433262275 265.30842254461896, 375.03987560636943 265.89561966917404, 372.98396549539046 266.8967260283477" stroke="#2d3748" stroke-width="1.259796142578125" fill="none"/></g><g opacity="0.6"><path d="M400 256.5 C399.81944729928045 257.3636975791384, 387.1479849227463 256.1662105243897, 386.60009294207873 256.95258750209763 M399.22007340157006 257.4107807124734 C398.5479139885315 257.4937667463227, 387.8351915768077 256.95780031298403, 386.2948546769842 256.16967904973666 M387 256.5 C386.4015013576997 257.77787858656524, 386.7000609281557 265.5134323893354, 388.40095928913877 264.6167774136959 M387.6068284972868 255.7258693375563 C387.16892790442466 257.28059262252515, 387.8091869892691 265.9975131360319, 386.50478458235693 266.8197380993341 M387 265.5 C386.1091118643782 265.5176139903264, 374.38901273991235 266.80995097677805, 373.57954078494646 266.76083146918285 M386.255758257971 266.3650309194278 C387.8163405912705 265.5489642378558, 375.4965387080078 264.22298755109625, 375.21545058807186 263.80269643685284" stroke="#2d3748" stroke-width="1.0078369140625" fill="none"/></g><g><g><path d="M373.34635027815716 265.6400426494422 C375.85602296886844 264.34488675861525, 378.80237354784276 262.867780827329, 382.3402667961557 261.5953496276265 M374.2248812031389 265.5555843006436 C377.261509459799 264.4462497162019, 380.1513994812041 262.40248950434204, 382.94581083026316 261.23231471770845" stroke="#2d3748" stroke-width="1.2688232421874999" fill="none"/></g><g><path d="M374.4507143807789 265.23802703613944 C376.6173020845469 266.0796127284225, 379.5799026283684 267.1760210460544, 383.17455757143284 268.8299613774527 M374.365540273443 265.2695483172055 C377.3527333847289 266.9993663170835, 380.4276366237332 268.2259276483165, 383.4827839590493 268.9919417885228" stroke="#2d3748" stroke-width="1.2688232421874999" fill="none"/></g></g></g><g data-from="approve" data-to="ship"><g data-spirit-line="true"><path d="M234 256.5 C233.77086376278126 258.0044371714586, 222.8676455564406 256.17658402078666, 221.1942178504588 256.38474841378627 M232.80723748548078 255.67540590551218 C232.6810889234021 256.79338487592577, 222.81889178758593 257.4563420859883, 219.93290122975364 256.4845982294583 M221 256.5 C221.34476505540846 257.2544830917065, 221.25345099158702 255.19365901254608, 221.25765121540968 255.12756183840332 M221.42046872026404 254.9230702306352 C220.55965613688258 257.2175445924597, 222.9054992609455 257.1343097034657, 221.92588823478056 257.62964475825686 M221 256.5 C219.9159476342651 257.8777259618532, 207.0989546012287 256.5290552392623, 207.0456885508789 257.97843626487105 M219.8027246333549 255.26865448246258 C220.41102193295754 256.6701527801829, 207.27921411714723 258.1126467843492, 209.04032766609794 254.9369092367607" stroke="#2d3748" stroke-width="1.1897521972656249" fill="none"/></g><g opacity="0.6"><path d="M234 256.5 C232.49609236211813 257.09094897521135, 222.0393889833953 257.51975016496914, 221.194289724695 256.6566435867335 M235.33583395214563 256.82642362661534 C234.88034978921803 257.1859584100922, 220.5605796236242 256.41150093078164, 220.1809590820775 257.5936400246196 M221 256.5 C220.44857689296137 256.9566308028802, 222.99034575603423 257.1825755873965, 221.81935524125473 257.14936800178697 M222.09135499820627 257.7254249944029 C219.14045512738917 256.7916393529013, 223.1358437303215 256.3059377798726, 222.24768371277193 254.9421391825825 M221 256.5 C220.20309468064033 257.3905380517762, 208.00277702524025 257.62254812784613, 206.43036727992128 257.81091732196177 M221.90478143456997 255.92270033100957 C219.01743081133623 256.92733910674656, 207.7674766882097 256.3242744470959, 207.7490456309224 255.30596174838703" stroke="#2d3748" stroke-width="0.9518017578125" fill="none"/></g><g><g><path d="M208.6500432685762 257.02612519319007 C210.5212568373748 254.63974383672212, 212.96347947848528 253.42556590131682, 216.51188517972645 251.99230792653293 M208.05566348711497 256.20349569745804 C210.88649800508625 255.28602889741765, 213.2771343807373 253.49597562031738, 216.60851092219107 251.9029516197762" stroke="#2d3748" stroke-width="1.198779296875" fill="none"/></g><g><path d="M208.25955824139692 256.67102850497923 C211.2893353308761 258.1556477485271, 213.82389455943172 258.289777148719, 217.51288189440376 260.3959393831224 M208.17993973627193 256.64260860381637 C211.07530091290363 257.7204386890441, 214.41589482177102 258.88703999639705, 217.33485883577626 260.0805658222199" stroke="#2d3748" stroke-width="1.198779296875" fill="none"/></g></g></g></g><g class="scrawl-notes"><g data-target="approve" data-placement="right"><g data-role="leader"><path d="M346.43016091967377 222.66975357114524 C350.34177335517853 222.80961648307124, 354.20018804440645 222.82901020965852, 356.94448293281346 222.23564983879774 M346.07357818501816 222.33656901121512 C349.41895133198426 222.52451176367921, 352.45374287113174 222.51931472300214, 356.884970414456 222.6848762046136 M357 222.5 C357 222.5, 357 222.5, 357 222.5 M357 222.5 C357 222.5, 357 222.5, 357 222.5 M357.19863429547104 222.42807668124885 C360.51774632566423 222.8109040883893, 364.38495992598683 222.77797245181742, 368.2253994391039 222.6563249844238 M357.0105725724064 222.33864262843505 C359.4556579548232 222.30288500125477, 361.75963316496836 222.45810247321197, 368.0495404778086 222.55640429723636" stroke="#b7791f" stroke-width="1.1" fill="none"/></g><g><path d="M396.80128989033403 229.1642963130027 L567.8473249536007 229.1228352624923 L568.0809557657689 285.1157694298774 L395.8061496119946 284.74792059250177" stroke="none" stroke-width="0" fill="#fef3c7"/><path d="M396.0409302312881 229.0431945066899 C453.20183127820496 227.82627100059392, 509.94994736723606 228.58772850343587, 568.9454693514854 228.851065550372 M395.92484561707823 228.32278198394926 C446.2634226480499 227.9583794138238, 496.4671293405816 228.6546555719182, 567.7050058474764 228.03726353440433 M568.1138343531638 227.39806157164276 C567.429299413988 246.80129801966248, 567.6569381712168 262.80039437673986, 567.5390724021942 285.463926313445 M567.7949940314517 229.05689220223576 C568.4606349185511 248.84446642864495, 567.508584739308 270.9699535960332, 568.4349677613005 284.4288057366386 M567.2573122818023 285.421154878661 C511.45803375914693 284.5062032806158, 453.21181500516826 283.62685954444413, 396.82855443544685 283.6511534553021 M567.5989687016233 284.71819606218486 C508.96779832262547 284.098306283544, 449.28348367940634 284.11807754356715, 396.0106150617823 284.4996472934261 M395.5875871617347 284.9198840957135 C396.19463595608175 270.0705084789545, 396.05708229998055 253.92263241969047, 396.8352167207748 227.64632851891218 M396.0977010240778 284.6261332610622 C395.8867833010599 265.4815700205043, 396.56882468981 247.52307645920664, 395.5122150829062 229.03426696453243" stroke="#d69e2e" stroke-width="1.2" fill="none"/></g><text class="scrawl-label" x="481.3" y="255.9" text-anchor="middle" dominant-baseline="central" font-family="&quot;Permanent Marker&quot;, cursive" font-size="12.28" fill="#744210" letter-spacing="0.010em" transform="rotate(-0.5 481.3 255.9)"><tspan dx="0.00 0.02 -0.04 0.17 -0.09 -0.03 0.07 -0.00 -0.11 -0.00 0.10 0.02 0.20 -0.09 0.04 0.13 0.03 -0.04 -0.01 0.18 0.03 0.14 0.14 0.22 0.01 -0.04 0.08 0.16 0.11 0.05 -0.02 0.07 0.09" dy="0.0 -0.4 -0.6 0.2 0.6 -0.5 -0.1 -0.4 0.5 -0.4 -0.0 -0.4 0.4 0.6 -0.3 0.1 -0.3 -0.6 -0.5 0.3 -0.3 0.1 0.1 0.4 -0.4 -0.6 -0.1 0.2 -0.0 -0.2 -0.5 -0.2 -0.1" rotate="0.0 -0.4 -0.7 0.5 -1.0 -0.7 -0.0 -0.5 1.0 -0.5 0.1 -0.4 0.7 -1.0 -0.2 0.3 -0.3 -0.7 -0.6 0.6 -0.3 0.4 0.4 0.8 -0.4 -0.7 -0.0 0.5 0.2 -0.2 -0.6 -0.1 0.0">Final sign-off
and release window</tspan></text></g><g data-target="security" data-placement="over"><g data-role="leader"><path d="M442.29585003262946 194.63292505594902 C441.54316153989737 190.44089916520008, 441.79780544929207 186.02680903304181, 442.1196664654035 183.57195149293355 M441.9715024322411 195.2299067103574 C442.1233410151604 191.35741768942495, 441.85320674976737 187.516875294202, 441.98611675642337 184.20394931280705 M442 184 C442 184, 442 184, 442 184 M442 184 C442 184, 442 184, 442 184 M442.00852016109417 184.09669617542437 C441.5829521297864 181.97225787227043, 442.3864862788967 179.3639910454806, 442.3934877817649 173.3047135753911 M442.18385321910586 184.2207394590685 C442.20943230328544 181.56617401043792, 442.1773207219897 178.99661018019265, 441.773326611205 172.7948494767556" stroke="#b7791f" stroke-width="1.1" fill="none"/></g><g><path d="M377.1360958561301 151.483071257174 L563.9326550468802 152.19176795631648 L563.8310193523764 207.73515856415034 L376.43905010074377 205.9874130025506" stroke="none" stroke-width="0" fill="#fef3c7"/><path d="M376.40992190986873 150.34051127284766 C436.43006374239917 149.5921418318033, 497.12371784299614 149.7661073335886, 562.9916302934289 150.3858941063285 M375.59542436525226 150.52953509166838 C415.26744638159875 151.0684098751962, 453.6957176350057 151.5812268526971, 564.1259656660259 151.0886647351086 M564.7028481736779 151.78419160693883 C564.9725626651167 164.11300965100526, 562.8690294448256 176.12493163794278, 563.8164184346795 206.13426041454076 M564.4722518675029 150.66989623382688 C564.323664325565 172.46653144732116, 563.6620020569264 194.4280233807862, 563.6365082256495 207.2885603316128 M563.8129268422723 207.99160332530738 C523.4834077209234 206.5591128923893, 482.816951648891 208.04315224671362, 376.88204062134025 207.9828327164054 M563.6386843197048 206.73079646900297 C521.4935154356062 207.2039402313888, 479.14653914794326 206.97185211855768, 376.386924289912 207.42239834144712 M375.1790739312768 206.47773666232825 C375.4932161636233 186.02644881159068, 374.99450166891813 166.5359016224742, 375.1414753690362 149.95753874629736 M376.25299808904526 207.07075630500913 C376.3564633199632 189.07276968732478, 376.25843172759414 172.2766026802361, 376.31595897600056 150.655730522424" stroke="#d69e2e" stroke-width="1.2" fill="none"/></g><text class="scrawl-label" x="469.6" y="178.7" text-anchor="middle" dominant-baseline="central" font-family="&quot;Permanent Marker&quot;, cursive" font-size="11.72" fill="#744210" letter-spacing="-0.007em" transform="rotate(-0.2 469.6 178.7)"><tspan dx="0.00 0.12 0.01 -0.12 -0.03 0.02 0.02 0.13 0.20 0.02 -0.03 -0.05 0.19 0.21 0.22 -0.12 -0.02 -0.05 0.00 -0.05 0.09 -0.02 0.19 0.02 -0.05 -0.05 0.13 0.13" dy="0.0 0.0 -0.4 0.5 -0.6 -0.3 -0.3 0.1 0.4 -0.3 -0.6 -0.6 0.3 0.4 0.5 0.5 -0.5 -0.6 -0.4 -0.6 -0.1 -0.5 0.3 -0.4 -0.6 -0.6 0.1 0.1" rotate="0.0 0.2 -0.4 0.9 -0.7 -0.3 -0.3 0.3 0.7 -0.3 -0.7 -0.8 0.7 0.8 0.9 0.9 -0.6 -0.8 -0.5 -0.8 0.0 -0.6 0.6 -0.4 -0.8 -0.8 0.3 0.3">Parallel checks stay
visible</tspan></text></g></g><g class="scrawl-nodes"><g data-id="intake"><g><path d="M67.592513194556 73.73712620513338 C124.28947511084833 74.4674833238866, 177.83880800308575 73.64849443575244, 209.14588151816204 74.26729542671272 M68.7206644163974 73.73894791051522 C118.46473635778959 73.20823240465171, 169.96663606043376 73.54757405916838, 207.36650533087183 73.38677634330683 M207.46719078005663 73.65616181296936 C207.94133446399945 91.10955706337148, 209.37383568264391 108.26133154966436, 209.20067350170805 128.9055319799047 M208.29374100062347 74.76261868371834 C207.79063723241552 92.47729048887902, 207.35833076841962 111.21944180315768, 207.47847674082422 129.80130564237936 M209.22464465131029 129.41480397461186 C175.85271994327067 129.54802127657507, 144.12939688077518 129.96938203883263, 69.81918090908246 128.48887667519747 M208.09674802717745 128.93261363267996 C171.1914894585612 128.2790683474306, 134.8654051456127 128.0474779629065, 68.4696651883941 129.71275996041177 M67.91192458752911 128.1156617122554 C68.38604059632682 116.11177729578051, 67.89090873316688 104.24954070012208, 67.61442422494696 73.3142337280405 M67.47110150643631 129.52860252676444 C67.95830756971824 109.12990859114936, 68.97013662633394 89.78558423329318, 67.48752431335419 73.70623490067916" stroke="#2d3748" stroke-width="1.073724365234375" fill="none"/></g><text class="scrawl-label" x="137.7" y="101.4" text-anchor="middle" dominant-baseline="central" font-family="&quot;Permanent Marker&quot;, cursive" font-size="15.72" fill="#1a202c" letter-spacing="-0.005em" transform="rotate(-0.0 137.7 101.4)"><tspan dx="0.00 0.00 0.21 -0.09 0.10 0.00" dy="0.0 -0.4 0.4 0.6 -0.0 -0.4" rotate="0.0 -0.5 0.8 -1.0 0.1 -0.5">Intake</tspan></text></g><g data-id="draft"><g><path d="M235.66060486956616 73.74373670910069 C265.91777867305433 72.27639315547434, 305.3192521087078 73.17865926475928, 376.1366687296421 73.27149025216373 M235.18480494360986 73.46060425615953 C267.6229896058392 72.72661397828914, 304.5748042979333 74.5916188466981, 373.2078815310572 73.78788053335049 M373.86935392549606 72.79437277723797 C375.89547842525496 83.6770657364716, 371.5005870404218 96.5587548486727, 371.8003811113218 130.3026609936493 M372.97634496201175 74.46034132254393 C373.3026142044775 93.02766416242714, 374.1867329281685 113.40480933593483, 373.4065657970395 129.40125161258104 M373.79484297188924 126.34201256906204 C332.45325833525027 126.88644886305727, 295.609892539944 130.98237039787352, 235.53249807783945 131.34929180405948 M374.29649629499266 130.28699274869425 C329.51924325226287 130.41330169650502, 282.6825411147459 130.67892533636015, 234.25456639774913 127.95119402504008 M235.4955557574424 129.54459323371762 C232.63324258440116 107.44605801853072, 235.05299497706747 87.71719060298079, 233.5109210393201 72.42279102227627 M233.28675238120252 130.16321890580605 C233.2394523668022 115.04051002050358, 232.99225548377126 101.62400015071218, 233.67060322287537 74.3723358456232" stroke="#2d3748" stroke-width="1.062548828125" fill="none"/></g><text class="scrawl-label" x="303.7" y="101.3" text-anchor="middle" dominant-baseline="central" font-family="&quot;Permanent Marker&quot;, cursive" font-size="15.69" fill="#1a202c" letter-spacing="-0.006em" transform="rotate(-0.1 303.7 101.3)"><tspan dx="0.00 -0.02 0.20 0.14 -0.04" dy="0.0 -0.5 0.4 0.1 -0.6" rotate="0.0 -0.6 0.7 0.4 -0.7">Draft</tspan></text></g><g data-id="legal"><g><path d="M399.33183604272335 72.74768177552914 C428.0445683800949 74.20188630959308, 455.96518047078416 75.8369117435999, 540.191213468222 75.55189681129423 M399.308320634492 74.16171719320187 C450.5664315236311 75.01921562743686, 498.7462047315232 73.71441751725965, 539.5078878597371 74.05779485188464 M538.8219780249215 72.09674879647218 C540.3022294086704 90.28090664929778, 541.3196988389691 101.7456147496473, 540.8354558550068 127.64358093876808 M539.5347630130957 74.46557115809333 C539.4532868556615 95.87617148200002, 539.744850202549 116.19507359964405, 539.9854147851322 128.52099692534898 M539.0405916937175 128.34305368686046 C504.8884872647045 130.73563100798523, 472.7542195866422 131.13863931140108, 399.4084896804866 127.6704546584283 M540.9562216354273 128.17178050590223 C496.6598022462524 129.17179234586655, 453.8073044261139 128.93836068783565, 399.31901865258556 128.41621245342753 M400.8093276584855 129.21641349440915 C399.12051885490024 108.15216616543194, 399.95034584593037 87.72172820038986, 399.5350713851817 73.31535559065242 M399.6423290987543 128.24371942666107 C400.8455182815165 109.63891294873679, 400.84209914991567 89.7344264247738, 399.31765209911396 73.59834351731183" stroke="#2d3748" stroke-width="1.15379638671875" fill="none"/></g><text class="scrawl-label" x="470.1" y="101.7" text-anchor="middle" dominant-baseline="central" font-family="&quot;Permanent Marker&quot;, cursive" font-size="15.90" fill="#1a202c" letter-spacing="-0.001em" transform="rotate(0.4 470.1 101.7)"><tspan dx="0.00 0.20 0.08 -0.02 0.07 0.14 0.13 0.18 0.07 -0.07 -0.00 0.15" dy="0.0 0.4 -0.1 -0.5 -0.1 0.1 0.1 0.3 -0.1 0.7 -0.4 0.2" rotate="0.0 0.7 -0.0 -0.6 -0.0 0.3 0.3 0.6 -0.0 -0.9 -0.5 0.4">Legal Review</tspan></text></g><g data-id="security"><g><path d="M398.3756193477176 230.20302476560704 C447.3283727320635 230.69088349956735, 492.2197003591395 228.0530721363852, 541.6696013162216 230.14362287882403 M399.45572543694504 229.2836675438811 C447.7605206700751 228.5936353398549, 495.5262411452196 229.43290925455844, 540.8102227576553 229.12379739995086 M541.6340974781561 227.71136636536218 C538.9024997780025 240.00172030797296, 540.4953215666143 250.67596398744897, 540.8244483380319 284.0055762110179 M540.0936795885508 228.62785655937205 C540.0515092150882 242.09703386351197, 539.2872144922043 256.2413079891567, 540.5989758551009 283.95839903324185 M541.6291430939839 283.75106142454456 C502.4923790067775 285.29670825927707, 465.5725358255491 282.4574944769733, 398.9030392148743 283.8534479110187 M539.8010069954095 284.2431068684393 C495.76199264081424 282.9343408809964, 451.93243290083063 284.03383161748394, 399.39110265903344 283.63059757405114 M400.2157873302738 285.6616838806689 C401.615954783143 272.8253265306537, 400.47521771209324 261.06472424443353, 400.584326772703 227.39881457905943 M400.1474661225922 284.74978451959316 C400.8213008203793 271.8472436809534, 401.0109232741137 258.79888553665296, 399.20624662810724 228.23136073015706" stroke="#2d3748" stroke-width="1.096929931640625" fill="none"/></g><text class="scrawl-label" x="469.8" y="256.5" text-anchor="middle" dominant-baseline="central" font-family="&quot;Permanent Marker&quot;, cursive" font-size="15.77" fill="#1a202c" letter-spacing="-0.004em" transform="rotate(0.1 469.8 256.5)"><tspan dx="0.00 0.15 0.04 0.19 0.17 0.01 0.10 0.04 -0.10 -0.10 -0.05 0.19 0.04 0.12 -0.09" dy="0.0 0.2 -0.3 0.3 0.3 -0.4 -0.0 -0.3 0.6 0.6 -0.6 0.3 -0.3 0.0 0.6" rotate="0.0 0.4 -0.2 0.7 0.5 -0.4 0.1 -0.2 1.0 1.0 -0.8 0.6 -0.2 0.2 -1.0">Security Review</tspan></text></g><g data-id="approve"><g><path d="M231.435145939064 227.29322319116767 C267.5309475738835 229.2633073571116, 299.7850824159741 231.01863670807504, 375.8879711488091 227.86961859576041 M233.1710212760463 229.14714200823636 C270.0048433714052 227.99659206793513, 307.83912424856936 227.70920953934802, 372.9688154816708 228.2893203193491 M373.35326344574605 227.097538630003 C374.1477997520566 250.43616242908323, 374.021255690207 269.12023134181584, 374.2230143647899 286.55132953113645 M373.8404499057266 229.16112247204526 C373.7550878408549 246.3985024445368, 373.31471582616854 260.19922271230917, 375.0144150475895 283.7371972519124 M373.21158312580917 283.84453224305184 C319.4565268257607 280.985601831817, 270.7352623713534 282.5956331187926, 231.53679544073418 285.48211421091474 M374.4918689855735 283.7171837203385 C328.1700869925095 283.05054585252753, 279.6979086729003 282.6171142361897, 234.99233103737936 283.4773744790831 M236.52706545931758 283.3758956055135 C233.04559813051029 270.2383253735694, 232.27639802795684 262.34577492398313, 235.61240394510784 229.55792658612629 M233.64598200305772 284.06647126013866 C234.5664464572895 269.37546712204255, 233.43305975518697 255.92137408725046, 233.48944346028912 230.22218934090324" stroke="#2d3748" stroke-width="1.02960205078125" fill="none"/></g><text class="scrawl-label" x="303.5" y="256.2" text-anchor="middle" dominant-baseline="central" font-family="&quot;Permanent Marker&quot;, cursive" font-size="15.62" fill="#1a202c" letter-spacing="-0.007em" transform="rotate(-0.2 303.5 256.2)"><tspan dx="0.00 0.13 0.19 0.06 0.04 0.15 0.02" dy="0.0 0.1 0.3 -0.2 -0.3 0.2 -0.3" rotate="0.0 0.3 0.6 -0.1 -0.2 0.4 -0.4">Approve</tspan></text></g><g data-id="ship"><g><path d="M66.55197268501828 229.51238842939642 C98.06554703273795 229.96396671112691, 130.57901805369733 229.93558144562684, 206.27279823637372 229.50884438722233 M68.64874099088274 228.1311133322909 C96.13118396672023 228.8405550186458, 123.7814563806653 229.00538472974108, 208.60935340800117 228.28127083248674 M209.63009527681177 229.40865104865725 C207.9728057863874 245.76039316780174, 207.54961675562407 266.0470353905386, 207.66607428388838 285.70394141342996 M208.97548120971516 229.42300388471193 C207.42875799544427 243.71596518366152, 207.25060294495805 258.63310202398685, 208.09577963853312 284.2599176550472 M206.49031489246903 284.8931437328266 C174.7856268841725 284.8686597849673, 138.77239205227374 282.3251373263102, 66.77793272043962 285.3005198500112 M208.31482683311108 283.4164508151997 C174.7566594671321 284.7220972324554, 142.48312984033137 284.55566005245146, 67.74144737404464 283.2580327190713 M68.97478058452614 284.20424690681574 C68.33136737491108 271.821178881701, 66.6724923892907 256.8897924986241, 66.77422197604076 229.0674673779677 M67.61677366651008 283.6873216964371 C67.56064393329996 269.4308870789809, 67.11608388349117 254.539949157724, 68.9277546867459 228.28110610359218" stroke="#2d3748" stroke-width="1.141387939453125" fill="none"/></g><text class="scrawl-label" x="138.0" y="256.7" text-anchor="middle" dominant-baseline="central" font-family="&quot;Permanent Marker&quot;, cursive" font-size="15.87" fill="#1a202c" letter-spacing="-0.001em" transform="rotate(0.3 138.0 256.7)"><tspan dx="0.00 -0.08 -0.12 -0.01" dy="0.0 0.6 0.5 -0.5" rotate="0.0 -1.0 0.9 -0.5">Ship</tspan></text></g></g></svg>