<svg xmlns="http://www.w3.org/2000/svg" width="1360" height="1828" viewBox="0 0 1360 1828"><defs><style>@import url('https://fonts.googleapis.com/css2?family=Permanent+Marker&amp;display=swap');
  .scrawl-label { font-family: 'Permanent Marker', 'Comic Sans MS', cursive; }
</style></defs><g class="scrawl-wireframe-flows"><g stroke-dasharray="7,5"><path d="M1320.941494537145 479.2828025214374 C1330.4139150567353 481.64792945555445, 1340.8569173939527 479.4095227258563, 1367.4188626296818 477.91799737140536 M1320.9390531834215 480.23621693886815 C1334.3393799778073 479.56514154417215, 1350.0017974551768 479.9503366921633, 1368.333738392219 479.28593080081043 M1367.161777153313 480.5449675795436 C1368.7843549476102 812.1296622513236, 1368.595735248132 1143.6559630632403, 1367.8227832892537 1377.1721555659176 M1368.2880766938626 479.99008944526315 C1369.272104653364 741.064515993595, 1369.2652021160181 1002.76344464764, 1368.3749520896374 1378.3523188926279 M1368.6603625586629 1377.24106921643 C1115.2017899507284 1381.9409946212393, 863.0490477260946 1382.3924806842429, 460.3535076716542 1377.2088184210659 M1367.9735043738783 1377.6696314765513 C1005.5597583611309 1376.0078968511896, 643.091893543452 1376.3228425251323, 460.11701291784647 1377.6105573655666" stroke="#2563eb" stroke-width="2" fill="none"/></g><g><path d="M460.6892465595156 1378.6206743773073 C463.9599780753206 1377.2600301971656, 467.7132043259682 1375.6077537780204, 469.8857299526751 1372.9001135772678 M460.14470640104264 1378.1226847292855 C462.43391362610896 1377.220506242831, 465.0333620655328 1376.1849877572777, 468.7028117999032 1373.2579611253577" stroke="#2563eb" stroke-width="2" fill="none"/></g><g><path d="M459.25934863463044 1378.0179422460496 C463.46786826446606 1379.6307073950195, 465.86427236658415 1381.1094998194978, 468.61527117430865 1383.2837337327537 M460.28002759628 1378.2121000308543 C463.76577076186487 1380.0490365688797, 467.4217893762551 1381.1043664279205, 469.08692895151376 1382.676297200599" stroke="#2563eb" stroke-width="2" fill="none"/></g><text class="scrawl-label" x="890" y="917" text-anchor="middle" dominant-baseline="central" font-family="&quot;Permanent Marker&quot;, cursive" font-size="12" fill="#2563eb">review</text></g><g class="scrawl-components"><g data-kind="screen" data-id="app"><g><path d="M39.969225577932505 39.734875553786104 L1319.9337955296514 40.15207454863653 L1319.8625953392018 919.8233832559413 L40.15601741664941 919.8014663982958" stroke="none" stroke-width="0" fill="#f8fafc22"/><path d="M40.05246460252574 39.972131742718595 C514.0978971542216 39.99190215113579, 988.0974724391513 39.94074478054422, 1320.0315230387528 39.90599133003954 M1319.9589256274244 40.03874167652257 C1319.9287743986717 297.6010826226823, 1320.1330352875875 555.2304661517142, 1320.0469767439176 919.9151014465733 M1320.0861165841657 920.0498574070814 C946.0010588672495 919.9164727017017, 572.0546724845505 919.9290300028166, 40.111359647414154 920.0789744106966 M39.99107418850468 920.084113758727 C40.05406394691619 727.712690986809, 39.85626469875163 535.25011928833, 40.108215864816884 39.957356279000834" stroke="#334155" stroke-width="1.2569686889648437" fill="none"/></g><text class="scrawl-label" x="680" y="58" text-anchor="middle" dominant-baseline="central" font-family="&quot;Permanent Marker&quot;, cursive" font-size="16" fill="#334155">Dashboard</text></g><g data-kind="header" data-id="top"><g><path d="M67.92183508680144 68.07145790231623 L1292.0309261440375 68.1957621185499 L1291.790390049261 173.77536768958288 L68.16629146188514 173.76411051489112" stroke="none" stroke-width="0" fill="#f8fafc22"/><path d="M68.03686991420133 67.98694726018587 C409.51460161919647 68.03011537624536, 750.854396618346 68.06009207883655, 1291.919632766064 67.91082880450142 M1291.7600987322835 67.77116362839267 C1291.759090633082 90.35455250129505, 1292.1269268171227 112.2751961048764, 1291.8610333598008 174.12130362293027 M1292.0158083811882 173.9450963685422 C961.119027416326 174.01138844547225, 630.3704391261945 174.0426021299096, 68.00654028583219 173.97021211255236 M68.03218373581338 173.99661681858123 C68.0563093739072 138.86182272936645, 68.02118860314772 103.43454632474912, 67.7949234054691 68.12270539922126" stroke="#334155" stroke-width="1.2365737915039063" fill="none"/></g></g><g data-kind="text" data-id="overview"><text x="84.0" y="98.0" font-family="&quot;Permanent Marker&quot;, cursive" font-size="13" fill="#334155">Overview</text><g><path d="M84.47973554432392 111.55446006000042 C203.81336442404427 110.42735015663833, 323.27376881645995 111.43686761650771, 612.5674578839541 112.37951634585858 M83.98516399949789 112.011419762671 C265.2724881400821 112.29392282744915, 446.18083370400603 111.98603772422344, 612.5007673987747 111.72310624986886" stroke="#718096" stroke-width="1.2" fill="none"/></g><g><path d="M84.12290989032108 126.54192404755618 C193.72846049972281 126.81106896024163, 302.4142898967763 126.90120931945427, 564.6648972837578 125.85459383501207 M84.10516322551922 125.75871796969335 C259.2774606228784 127.19232368689019, 434.23407206031897 126.66410965649084, 565.0113860004356 126.30604380451756" stroke="#718096" stroke-width="1.2" fill="none"/></g><g><path d="M83.67962419704884 140.21817070117083 C182.21214735225377 138.44446464174857, 281.66935977011536 139.00188122054158, 518.0738506770248 140.80294038616975 M84.26741041204215 140.23016058243863 C251.230877783654 138.68622773003983, 418.9820778550618 138.6448774379125, 518.1626876742762 140.2609044550748" stroke="#718096" stroke-width="1.2" fill="none"/></g><g><path d="M83.38270845413209 153.83978940963746 C204.15352580934766 153.56674599261285, 323.3903001958132 153.0786606654644, 612.4456070137024 154.11615842819214 M83.68244505882264 153.94543442726135 C193.55497597306967 153.6161101308155, 302.3049971216917 153.40133931782722, 612.263608083725 154.1258094882965" stroke="#718096" stroke-width="1.2" fill="none"/></g></g><g data-kind="button" data-id="invite"><g><path d="M689.0406657516187 83.66903178410239 L1275.92880094343 84.14521334979035 L1275.7515361969345 134.02632081533494 L689.2783538877206 134.14280420006963" stroke="none" stroke-width="0" fill="#f8fafc22"/><path d="M689.0000859507985 84.01129671491469 C841.7745752347001 83.84661852739967, 994.748650818333 83.878355350461, 1276.066690371482 84.13145404115619 M1275.7508977022794 84.23780240150772 C1275.775341329978 97.09973042811298, 1276.329891196306 109.56248263272555, 1275.859640889702 134.10151595116469 M1276.0650917662435 133.92517813011344 C1110.283418966909 134.07280819292555, 944.8749587201281 134.04391238386705, 688.8902319871671 134.0427081076239 M688.8673347631402 133.7950014412002 C688.6739814593858 121.73572009547279, 688.9917697184698 110.08239569633524, 688.7247445871649 83.77923729743434" stroke="#334155" stroke-width="1.2881332397460938" fill="none"/></g><text class="scrawl-label" x="982.5" y="110" text-anchor="middle" dominant-baseline="central" font-family="&quot;Permanent Marker&quot;, cursive" font-size="15" fill="#1a202c">Invite</text></g><g data-kind="sidebar" data-id="nav"><g><path d="M68.12905441092012 192.2116291930459 L328.1795170196273 191.99095677509587 L327.9816317652016 891.9754780860965 L67.89223253912037 891.8797169243683" stroke="none" stroke-width="0" fill="#f8fafc22"/><path d="M67.8945728734852 192.06080538984395 C143.31262721606166 191.95863719034924, 218.56173210809405 192.10384942213574, 327.84816724756524 192.14575004451643 M328.00413876406674 191.99304686625302 C327.965498237718 381.8671322525333, 328.00108455187217 571.7127192750567, 327.9339654317928 892.0536466429319 M328.1470989643693 892.0593769182709 C257.7759333924039 892.0640969375132, 187.19387284111974 891.9106639308627, 68.12632814167043 892.0784679821036 M68.07372913920861 892.0421083286204 C68.00243547197182 656.4590285853305, 67.93842767605595 420.9632509213894, 68.07994665801996 191.97357410587585" stroke="#94a3b8" stroke-width="1.2220932006835936" fill="none"/></g><text x="86.0" y="216.0" font-family="&quot;Permanent Marker&quot;, cursive" font-size="14" fill="#4a5568">Navigation</text></g><g data-kind="list" data-id="menu"><text x="86.0" y="246.0" font-family="&quot;Permanent Marker&quot;, cursive" font-size="13" fill="#334155">Menu</text><g><path d="M93.43802832372779 258.99289864859765 C93.91459279146216 259.20701649816084, 94.45845774008777 259.6148872456888, 94.93455164863919 260.14995910194335 C95.4106455571906 260.6850309581979, 96.12230922643212 261.44051358398445, 96.29459177503627 262.2033297861251 C96.46687432364041 262.96614598826574, 96.48520456437963 264.3116467143172, 95.9682469402641 264.7268563147871 C95.45128931614856 265.142065915257, 94.07440586774318 264.6771756475695, 93.19284603034303 264.69458738894446 C92.31128619294289 264.7119991303194, 91.23308996461948 265.0568128610727, 90.67888791586323 264.83132676303677 C90.12468586710698 264.60584066500087, 89.95483808182891 264.1265485644892, 89.86763373780553 263.34167080072893 C89.78042939378216 262.55679303696866, 89.75074186168398 260.89422272841455, 90.155661851723 260.1220601804753 C90.56058184176202 259.349897632536, 91.70139392682867 258.8165187815807, 92.29715367803968 258.7086955130933 C92.89291342925068 258.60087224460585, 93.39540118853031 259.23805405180894, 93.73022035898907 259.4751205695507 C94.06503952944783 259.7121870872925, 94.28634392258496 260.07979530582384, 94.30606870079225 260.131094619544 M94.14339215796929 258.48327555896833 C94.71494281486147 258.584013889041, 95.25987158044157 259.02209578861743, 95.74677820384714 259.69391384894027 C96.23368482725272 260.3657319092631, 97.05671827433463 261.5917248759308, 97.06483189840272 262.5141839209053 C97.0729455224708 263.43664296587974, 96.22617098627131 264.73192564406213, 95.7954599482557 265.228668118787 C95.36474891024008 265.7254105935119, 95.1441185318294 265.5187003336525, 94.480565670309 265.4946387692547 C93.8170128087886 265.47057720485697, 92.67472364132168 265.3982793217509, 91.81414277913333 265.0842987324004 C90.95356191694499 264.77031814304985, 89.69080687481122 264.4018316560175, 89.31708049717895 263.61075523315156 C88.94335411954668 262.8196788102856, 89.2865444417784 261.0526623949984, 89.57178451333972 260.3378401952045 C89.85702458490104 259.6230179954106, 90.30464514245574 259.56837792788957, 91.0285209265469 259.321822034388 C91.75239671063807 259.0752661408864, 93.44620218856132 259.0848900719293, 93.91503921788673 258.85850483419495 C94.38387624721214 258.6321195964606, 93.71823456723219 258.04054502834947, 93.8415431024994 257.9635106079818" stroke="#94a3b8" stroke-width="1.2" fill="none"/></g><g><path d="M105.51661847680808 265.09049400240184 C181.17159107383344 264.2129656018168, 257.1632198598236 264.72369896782936, 300.9023283824325 265.8933483973145 M104.17525195553898 266.3871458224952 C170.99452145267279 266.72524250878394, 237.5011879529804 267.4022141589075, 302.64266349747777 265.60968674942853" stroke="#94a3b8" stroke-width="1.2" fill="none"/></g><g><path d="M93.37908881067767 279.2296766479446 C94.10100109365769 278.9960151536874, 94.47796081460653 278.6944429189934, 94.9887906525383 279.19074521906884 C95.49962049047006 279.6870475191443, 96.29065805945014 281.6085182752626, 96.44406783826824 282.2074904483974 C96.59747761708634 282.80646262153215, 96.44459330237353 282.23510341540293, 95.90924932544691 282.7845782578774 C95.37390534852028 283.33405310035187, 94.03428363199838 285.26841870431434, 93.23200397670847 285.504339503244 C92.42972432141856 285.7402603021737, 91.7172194777906 284.6888474706952, 91.09557139370743 284.2001030514553 C90.47392330962427 283.7113586322154, 89.72491760037707 283.11855072390887, 89.50211547220948 282.5718729878047 C89.2793133440419 282.0251952517005, 89.57854596770856 281.31456103579137, 89.75875862470193 280.92003663483007 C89.93897128169529 280.52551223386877, 90.08995776847507 280.42761436313134, 90.58339141416967 280.2047265820369 C91.07682505986426 279.9818388009425, 92.32141273306995 279.6718840678502, 92.71936049886948 279.58270994826347 C93.117308264669 279.4935358286767, 92.92067844634613 279.61126241681865, 92.97107800896684 279.66968186451646 M92.94839830042328 279.13182753228887 C93.67400400322552 279.05731629999696, 94.12378524327349 279.2697092859173, 94.65742912206471 279.8009685365728 C95.19107300085594 280.33222778722825, 95.86766235105367 281.67960569020414, 96.15026157317058 282.3193830362218 C96.4328607952875 282.9591603822394, 96.68809728081179 283.2872398403484, 96.35302445476624 283.6396326126786 C96.0179516287207 283.99202538500884, 94.81003873126892 284.34284886244984, 94.13982461689731 284.4337396702033 C93.46961050252571 284.52463047795675, 93.11536891036832 284.3728331204601, 92.3317397685366 284.1849774591992 C91.54811062670487 283.99712179793835, 89.74012705657506 283.9751844096444, 89.43804976590695 283.3066057026381 C89.13597247523884 282.6380269956318, 90.12758672747752 280.7434390556684, 90.51927602452794 280.1735052171615 C90.91096532157836 279.60357137865464, 91.15800473719068 280.0962502201917, 91.7881855482095 279.88700267159675 C92.41836635922832 279.6777551230018, 93.85936888428145 278.86102871867195, 94.30036089064086 278.9180199255918 C94.74135289700027 278.97501113251167, 94.67837644181003 280.069365519934, 94.4341375863659 280.22894991311597" stroke="#94a3b8" stroke-width="1.2" fill="none"/></g><g><path d="M104.60242923498154 287.461601793766 C179.3166781410575 288.0064948211908, 255.11690116822723 286.2025591980219, 301.86745265722277 284.60721679925916 M104.45631950497628 285.79882470965384 C174.77375807315113 284.30836431276794, 246.8256509870291 284.52959787142277, 301.3783640682697 285.41193944811823" stroke="#94a3b8" stroke-width="1.2" fill="none"/></g><g><path d="M91.71515651681399 299.35693085404955 C92.38870454789965 299.2166118708405, 94.16283666717885 299.56328415644566, 94.95399973620773 299.7766423685346 C95.74516280523662 299.9900005806236, 96.33147631909112 300.1771624077896, 96.46213493098725 300.6370801265832 C96.59279354288337 301.09699784537685, 96.00988775485399 301.83692089983833, 95.73795140758448 302.5361486812965 C95.46601506031496 303.23537646275463, 95.25979486432908 304.3790780050973, 94.83051684737013 304.8324468153321 C94.40123883041119 305.2858156255669, 93.82505439864715 305.4921442639618, 93.16228330583083 305.2563615427054 C92.4995122130145 305.020578821449, 91.4656824425083 304.01805293506857, 90.85389029047221 303.4177504877937 C90.24209813843612 302.8174480405188, 89.54201049427076 302.2261975349823, 89.4915303936143 301.6545468590559 C89.44105029295784 301.08289618312955, 89.88574060236657 300.3204642136735, 90.55100968653346 299.98784643223553 C91.21627877070036 299.65522865079754, 92.980762838262 299.77440280784964, 93.48314489861566 299.65884017042816 C93.98552695896933 299.5432775330067, 93.75380510595238 299.2284067067554, 93.56530204865544 299.29447060770667 M91.74879634287792 299.58847384479543 C92.61908145944889 299.74514900144425, 95.36162549303083 299.36478017696453, 95.93512856145912 299.78907629299823 C96.50863162988742 300.21337240903193, 95.03346058489902 301.33503711152815, 95.18981475344769 302.13425054099775 C95.34616892199637 302.93346397046736, 97.10692954430027 304.34538128858435, 96.87325357275112 304.5843568698159 C96.63957760120198 304.82333245104746, 94.45508088754416 303.35698727411125, 93.78775892415281 303.56810402838704 C93.12043696076147 303.77922078266283, 93.56712119256855 305.935641055253, 92.86932179240307 305.85105739547055 C92.17152239223759 305.7664737356881, 90.2273422129151 303.64696935008936, 89.60096252315995 303.06060206969266 C88.9745828334048 302.47423478929596, 89.01558046941553 302.796768439727, 89.11104365387213 302.3328537130904 C89.20650683832874 301.8689389864538, 89.64540316164569 300.86831776935935, 90.17374162989961 300.2771137098734 C90.70208009815353 299.68590965038743, 91.87299537967343 298.8474280293782, 92.28107446339567 298.7856293561747 C92.68915354711791 298.7238306829712, 92.43392557672188 299.90692003624076, 92.62221613223306 299.9063216706525" stroke="#94a3b8" stroke-width="1.2" fill="none"/></g><g><path d="M103.68823999315501 306.6327095851302 C180.66176520828157 305.4320240405649, 256.2705824766308 304.51341942821443, 302.832576932013 306.52108520120385 M104.73738705441356 305.2105035968125 C180.15299469362944 305.05948611675205, 254.55011402107775 306.424981583938, 301.7140646390617 305.21419214680793" stroke="#94a3b8" stroke-width="1.2" fill="none"/></g><g><path d="M91.67361074629177 319.6084093179838 C92.00580012746028 319.29894786827, 92.4720288319325 318.6838326486787, 93.25231510467448 318.8658976648541 C94.03260137741646 319.04796268102956, 95.99034261895237 320.1390072667715, 96.3553283827436 320.7007994150365 C96.72031414653482 321.2625915633015, 95.70757191216127 321.6787532971427, 95.4422296874218 322.2366505544442 C95.17688746268233 322.79454781174576, 95.06153381552684 323.6557037236331, 94.76327503430676 324.0481829588458 C94.46501625308667 324.4406621940585, 94.32860577453675 324.5678110788239, 93.65267700010125 324.5915259657204 C92.97674822566574 324.61524085261686, 91.4236567941349 324.55604825701107, 90.70770238769376 324.19047228022475 C89.99174798125262 323.82489630343844, 89.37159765645121 323.12016036163976, 89.3569505614544 322.3980701050026 C89.34230346645758 321.67597984836544, 90.03505425107517 320.28947068953244, 90.61981981771287 319.85793074040174 C91.20458538435057 319.42639079127105, 92.47307032128316 319.9549807234696, 92.86554396128062 319.80883041021826 C93.25801760127808 319.66268009696694, 93.13904424596087 319.1752181736494, 92.97466165769762 318.98102886089373 M92.95018580251455 320.08842662472813 C93.55580125381738 320.0760209563737, 94.17834733028664 319.497061592195, 94.7840240909063 319.807768858917 C95.38970085152596 320.11847612563895, 96.55605765661711 321.40330860623504, 96.5842463662325 321.95267022505993 C96.6124350758479 322.5020318438848, 95.48069219992249 322.5859843463656, 94.95315634859863 323.1039385718663 C94.42562049727476 323.621892797367, 93.67427356062764 324.7314152392915, 93.4190312582893 325.0603955780643 C93.16378895595095 325.3893759168371, 94.02433937672201 325.4551474467792, 93.42170253456852 325.0778206045032 C92.81906569241504 324.70049376222715, 90.3487811000827 323.29212292381993, 89.80321020536837 322.79643452440814 C89.25763931065404 322.30074612499635, 89.95054210704676 322.4525977460835, 90.14827716628254 322.10369020803256 C90.34601222551832 321.75478266998164, 90.57053684627476 321.2708467884106, 90.98962056078308 320.7029892961025 C91.4087042752914 320.13513180379437, 92.29250516897318 318.876021175823, 92.66277945333242 318.6965452541837 C93.03305373769166 318.51706933254445, 93.39046282409173 319.38763666508225, 93.21126626693854 319.6261337662668" stroke="#94a3b8" stroke-width="1.2" fill="none"/></g><g><path d="M102.77405075132847 325.8038173764944 C178.80685227550566 326.02555325993893, 257.42426378503444 325.99227965840697, 300.5977012068033 325.2349536031485 M103.41845460385085 326.2221824839711 C144.33223131410776 327.4106079207361, 184.67457705512643 326.7203652964533, 302.04976520985366 326.6164448454976" stroke="#94a3b8" stroke-width="1.2" fill="none"/></g></g><g data-kind="column" data-id="content"><g><path d="M346.2389081530269 191.78835393091148 L1292.3437074268072 192.29581000466152 L1291.7584923396987 917.9739944889096 L346.25069388403284 917.6237486109228" stroke="none" stroke-width="0" fill="#f8fafc22"/><path d="M346.03840482928604 191.92757842976656 C620.0242429451696 191.95441949220384, 893.9817100461589 192.01661628444626, 1292.132340224755 191.85429822304158 M1291.9952793519326 192.07215572727327 C1292.067114032375 344.7454607433123, 1292.1557307676915 497.28317477803057, 1291.9763387647833 918.0661711031765 M1291.8998572446333 918.0820805951751 C928.7660458711683 918.0454887499745, 565.5684085603044 917.8028028002309, 346.05201648714 918.0755191914435 M346.00638027668 917.8841520253533 C345.97524618629853 759.8155450471234, 345.9559004788982 601.4606170848639, 345.86704192603753 192.0667541394767" stroke="#334155" stroke-width="1.2114242553710937" fill="none"/></g><text x="364.0" y="216.0" font-family="&quot;Permanent Marker&quot;, cursive" font-size="14" fill="#4a5568">Content</text></g><g data-kind="card" data-id="revenue"><g><path d="M369.9112010517907 237.86204521000758 L1267.9800354014187 238.11981891637257 L1267.8990782354747 381.8646598765786 L370.1256620920271 381.8690483415208" stroke="none" stroke-width="0" fill="#ffffff22"/><path d="M370.06149364811597 237.97512258209727 C642.6713426561031 237.96217077390912, 915.1025291732269 237.98830578998295, 1267.932203329014 237.94168975626383 M1268.0993920552814 238.05731845702098 C1268.0677551661718 294.8611298395247, 1268.2263571589572 352.13098551383587, 1268.102640177495 381.9343154829417 M1267.9637841824065 381.9545501874833 C1082.1023811192251 382.0251061687539, 896.1475009469508 381.9620328947537, 369.92321851760266 382.04919796246656 M370.1019599581014 382.180841614546 C369.9392833498996 346.9441617746925, 370.0948677351209 312.37426576978606, 370.16338676969247 238.05901959171746" stroke="#334155" stroke-width="1.2274932861328125" fill="none"/></g><text x="388.0" y="262.0" font-family="&quot;Permanent Marker&quot;, cursive" font-size="14" fill="#4a5568">Revenue</text><g><path d="M387.52666385173796 281.59078724384307 C623.4124554108083 279.96563519382954, 858.8939061495663 280.8353603830385, 1163.35569873333 281.53355656147005 M387.83083208322523 281.85548936605454 C560.8819592715801 281.31014671720027, 734.604202182591 281.8131613198614, 1164.0725463318827 282.24398629903794" stroke="#718096" stroke-width="1.2" fill="none"/></g><g><path d="M388.44098815500735 296.53923036038873 C603.0145200381318 295.65340647126663, 817.4834382737952 296.877264064803, 1094.781748443246 296.29910392224787 M387.9432591030002 296.260160920918 C561.0398646130525 296.5804866434542, 733.7064087827728 296.9012060095278, 1094.6068265601994 296.1648873785138" stroke="#718096" stroke-width="1.2" fill="none"/></g><g><path d="M388.07531245827676 310.2076734769344 C581.3359646340684 312.2692749490526, 774.7917303352506 311.28726494691637, 1026.207798153162 309.78465128302577 M388.05568612277506 310.02483247578147 C557.6129170306847 311.60001772902416, 727.558909535274 311.73844185851027, 1025.7811067885161 310.0857884579897" stroke="#718096" stroke-width="1.2" fill="none"/></g></g><g data-kind="card" data-id="pipeline"><g><path d="M369.76459046646494 399.74823778260685 L1267.8579768709592 400.1876708814488 L1267.930796150418 543.810927995653 L369.93872543118925 544.2233211641774" stroke="none" stroke-width="0" fill="#ffffff22"/><path d="M370.0301151222453 400.0494584817463 C635.8798861778716 399.9985007814042, 901.9766353420642 400.1122620065042, 1268.024181101305 400.07472038978773 M1268.181893247737 400.01639803958454 C1267.96323479396 450.34218469817205, 1267.9920058036273 500.30297454422026, 1268.1095516331436 544.2463024205185 M1267.8994237393015 544.0346381843236 C1084.1722536830391 544.0267795158858, 900.3261356955279 544.0487321204994, 369.960279412473 543.9472167502845 M369.8112370369782 544.0901506452595 C369.8230667783392 511.8657307844165, 370.1963248103821 479.4800963282388, 369.8937528880561 400.0010548632177" stroke="#334155" stroke-width="1.2475738525390625" fill="none"/></g><text x="388.0" y="424.0" font-family="&quot;Permanent Marker&quot;, cursive" font-size="14" fill="#4a5568">Pipeline</text><g><path d="M388.5492206287384 444.0689698314667 C617.8098187676072 445.05298370524406, 848.1635907346011 445.14591980143547, 1163.987721910477 444.4043406200409 M387.90928121089934 443.79333132267 C679.8770736846328 442.1019649173069, 971.2332011193038 441.9534241153049, 1164.0585535192492 443.99692766666413" stroke="#718096" stroke-width="1.2" fill="none"/></g><g><path d="M388.1835449320078 457.7374129480124 C597.9198232902029 457.21293011660373, 806.4890026493745 456.3799986171225, 1095.413771620393 457.88988798081874 M388.0217082306743 458.19800287753344 C668.8646655479931 457.51493749046097, 949.9147807632611 457.1841014518715, 1094.592833747566 457.91782874614" stroke="#718096" stroke-width="1.2" fill="none"/></g><g><path d="M387.81786923527716 471.405856064558 C576.7492077814118 472.7060937283122, 766.0931745013744 472.2272946331584, 1025.559821330309 471.3754353415966 M388.13413525044916 471.9626744323969 C527.331404487513 472.6771012229311, 666.9146545595378 472.8039699477541, 1025.7671139758827 471.83872982561587" stroke="#718096" stroke-width="1.2" fill="none"/></g></g><g data-kind="panel" data-id="signup"><g><path d="M369.72492754881114 561.9205797561908 L1268.175039993247 562.2444300455563 L1267.9376606901324 894.2915854885823 L369.67390060686466 894.002678339154" stroke="none" stroke-width="0" fill="#f8fafc22"/><path d="M369.967831435434 562.1004971774867 C646.8017621295247 561.7959345267519, 923.5038938480732 562.0141453215635, 1267.8962954775384 562.0831954698766 M1268.1446627575356 561.8589268598947 C1267.9868941469936 688.3623380079023, 1267.804264548345 814.0913555904065, 1267.929981034859 894.1568814543422 M1267.9455690069076 893.876278534414 C1047.460416436901 894.0665816078334, 826.870363263525 893.8176875858356, 369.9572334750392 893.9138509597502 M369.8226657382456 894.2338493986127 C369.7030716070761 815.0582134206271, 369.7864915149377 736.2354760176507, 370.20410382541223 562.0208512734278" stroke="#334155" stroke-width="1.2078094482421875" fill="none"/></g><text x="388.0" y="586.0" font-family="&quot;Permanent Marker&quot;, cursive" font-size="14" fill="#4a5568">Signup</text></g><g data-kind="input" data-id="email"><g><path d="M394.0875598142983 608.0780674770386 C581.1724225367642 608.0370042088311, 768.1549200140024 607.9535451908255, 1243.9870502879558 608.0393376019994 M1243.7574882109236 608.0919085002963 C1244.2824748607063 620.91994140828, 1244.060716090421 634.402583153767, 1244.0348612105224 666.0498974274499 M1243.9260870230855 665.989708934204 C931.285057953918 665.9626753099847, 618.4880348483993 666.071366298399, 393.8855368477115 666.0544737323172 M394.24709574093123 666.0957419366725 C394.2647532501595 646.2568419975498, 393.7856246374357 626.4958446932299, 393.93442130265777 608.3222826243539" stroke="#334155" stroke-width="1.288995361328125" fill="none"/></g><text x="408.0" y="628.0" font-family="&quot;Permanent Marker&quot;, cursive" font-size="12" fill="#334155">Email</text><g><path d="M408.0337831262499 650.0252872093766 C588.7324121196941 650.6595958698296, 769.2797377836705 650.6322799408936, 1230.285475519076 649.7087813170999 M407.9024198452756 649.8683512975648 C611.063923073411 649.5936546073578, 813.7843195434289 649.7553823159359, 1230.1456636719033 649.9711064447835" stroke="#94a3b8" stroke-width="1.2" fill="none"/></g></g><g data-kind="textarea" data-id="notes"><g><path d="M394.11562251376074 683.896114675446 C702.2997437573813 683.9917040535572, 1010.6805202495625 684.0517819089297, 1243.8659021455924 684.0854459639969 M1244.0526827904187 684.0490414857994 C1243.678070611101 713.7951949699323, 1243.688917580181 743.116585796242, 1243.734401033513 802.2714769416395 M1244.055181688747 801.9050289555338 C1027.7114940503475 802.003925341743, 811.3196978481974 802.0405392336253, 393.9435804471824 802.0544368401615 M393.9315854722888 801.6581824618596 C394.1680324099271 760.262644827831, 393.91624962668897 719.4726718518871, 394.1494815831535 684.1280821892618" stroke="#334155" stroke-width="1.2023330688476561" fill="none"/></g><text x="408.0" y="704.0" font-family="&quot;Permanent Marker&quot;, cursive" font-size="12" fill="#334155">Notes</text><g><path d="M407.9473202717304 722.4568366992473 C676.4713564913347 721.935235863775, 944.7771322128923 721.4034646616875, 1147.8753420078756 722.3540621554852 M407.96730760514737 722.1454080682993 C673.3204636485502 719.5821853536809, 938.6124667378517 719.6229205030644, 1147.603665084243 721.8372814851999" stroke="#718096" stroke-width="1.2" fill="none"/></g><g><path d="M407.5816445749998 736.1252798157931 C651.8789946180246 737.3839149656698, 897.5378113358543 737.2062761679097, 1082.5013917177914 735.839609516263 M408.07973462492225 735.9100796231628 C663.9591088644602 734.9437134004158, 919.9561530869082 735.4421533132119, 1081.9779453125595 735.7581825646758" stroke="#718096" stroke-width="1.2" fill="none"/></g><g><path d="M408.4959688782692 749.7937229323387 C628.5660414850861 748.6040288641849, 849.0173079395591 748.7805224707522, 1015.8474414277076 750.6051568770408 M408.1921616446972 750.3147511780262 C530.1335532643645 750.7060710677514, 653.0114378039538 750.3822157439598, 1016.3522255408764 750.3190836441516" stroke="#718096" stroke-width="1.2" fill="none"/></g><g><path d="M408.1302931815386 763.4621660488843 C676.8143703267165 765.3399580801051, 944.8993684924023 764.5905840909999, 1147.753491137624 764.0907042378187 M408.3045886644721 764.0794227328896 C572.850726859849 766.0793369828444, 737.2321809121595 765.5731864224655, 1148.0065057691934 764.2399847236276" stroke="#718096" stroke-width="1.2" fill="none"/></g></g><g data-kind="button" data-id="create"><g><path d="M393.7591968602455 819.9417873929041 L1243.888139357538 820.2099374813371 L1244.0389023431349 869.796387298856 L393.84403012854466 870.0721093927685" stroke="none" stroke-width="0" fill="#f8fafc22"/><path d="M393.98147127204925 820.0932154731603 C689.0080382319006 820.0717944090562, 983.9582426445063 820.0970546376068, 1243.8932941680266 820.036764306847 M1243.7449064905618 819.8264451664692 C1243.7414204991776 839.6665148670113, 1243.8450562505022 859.028024606465, 1243.7246918196438 869.7238382331886 M1244.068481872563 870.038753692676 C937.3301833825099 869.9612826412521, 630.7552235046584 869.8906754973635, 393.99037726227516 869.9621602927348 M394.247349391956 870.0809292824129 C393.9335093186775 856.7367951397065, 393.9972276051103 843.1803848173656, 393.85629975104104 819.8232243963562" stroke="#334155" stroke-width="1.254559326171875" fill="none"/></g><text class="scrawl-label" x="819" y="846" text-anchor="middle" dominant-baseline="central" font-family="&quot;Permanent Marker&quot;, cursive" font-size="15" fill="#1a202c">Create</text></g><g data-kind="screen" data-id="mobile"><g><path d="M40.231368268634846 968.2064184171004 L459.7878283564973 967.6575183550862 L459.948022758813 1787.7353870506495 L40.02247229105889 1787.9471931488295" stroke="none" stroke-width="0" fill="#f8fafc22"/><path d="M39.80059814028306 968.0770590455488 C170.8757279899789 967.7811996731559, 301.5612730889766 967.9760887663676, 460.1606882089153 968.1004875751928 M459.84322198272145 968.1271560719972 C460.0665133120384 1143.558232854271, 459.817481692739 1319.1022909520186, 460.036692191012 1787.890275776565 M459.9409974271684 1787.952780227034 C369.367498531127 1788.1343069118163, 278.855150668059 1787.8907944687555, 39.79928084375131 1788.0154732554963 M39.85925465077395 1787.8998949703139 C40.033644476334665 1600.9403979608983, 39.88613435907472 1413.696757379699, 39.874283131013655 968.1192984102863" stroke="#334155" stroke-width="1.21427001953125" fill="none"/></g><text class="scrawl-label" x="250" y="986" text-anchor="middle" dominant-baseline="central" font-family="&quot;Permanent Marker&quot;, cursive" font-size="16" fill="#334155">Mobile</text></g><g data-kind="card" data-id="summary"><g><path d="M68.14048248831588 995.7774591206846 L431.6735382952729 995.7385110805902 L431.76459919881876 1140.007672272895 L68.03755493690207 1140.1250037307436" stroke="none" stroke-width="0" fill="#ffffff22"/><path d="M67.83813435037543 995.7921059195554 C150.98282311457146 996.0448947256782, 234.05444407793522 995.8228161570586, 432.21005264949076 995.8325108642475 M432.1868684797608 996.1456350682405 C431.90097870355333 1032.9644791222981, 431.82851586902456 1069.8810550318558, 432.13689122567797 1140.2130124150772 M432.13741286647314 1139.8240982929647 C307.9269389098475 1139.816982986243, 183.7972670918355 1140.0710753866772, 68.02460203127285 1139.7767809482077 M67.90981569694905 1140.2477725646017 C68.2745923458442 1091.0162101502442, 68.06616871180157 1042.0720795194766, 67.9424859987581 995.9721880446457" stroke="#334155" stroke-width="1.299053955078125" fill="none"/></g><text x="86.0" y="1020.0" font-family="&quot;Permanent Marker&quot;, cursive" font-size="14" fill="#4a5568">Summary</text><g><path d="M85.84354928845104 1040.8705308523145 C152.1610715515883 1040.5561728147482, 219.7221151208752 1040.6747941951949, 382.36037483159447 1039.0444260733186 M85.72504560584704 1039.8156744028158 C170.12479362085753 1040.5114228757602, 253.1761276358537 1040.7627787292877, 381.6541922722989 1039.784903502504" stroke="#718096" stroke-width="1.2" fill="none"/></g><g><path d="M85.11665127567066 1054.2711862283118 C147.17152127359515 1051.949021158329, 208.61941853550957 1052.769653978579, 354.4343898680061 1054.4904935626284 M85.92947000240103 1054.5989988471028 C168.0861493099937 1055.3487531121302, 250.4218618150974 1055.2571703682113, 354.448475049042 1053.6169748240573" stroke="#718096" stroke-width="1.2" fill="none"/></g><g><path d="M86.96184435311834 1067.5993353657586 C142.29931689874894 1069.336767380821, 197.61701109923402 1068.2847962154435, 328.964970708949 1067.4519155606706 M86.15848040733579 1068.1447892640413 C164.88773120295122 1066.8597494444425, 244.1764967133722 1066.3853630223923, 328.45819420871896 1067.431748464619" stroke="#718096" stroke-width="1.2" fill="none"/></g></g><g data-kind="modal" data-id="confirm"><g><path d="M67.95224165633958 1158.128526371167 L432.0965358435435 1158.1127095479733 L432.0626243957679 1438.1734092840804 L68.10004989355771 1438.1802869240764" stroke="none" stroke-width="0" fill="#f8fafc22"/><path d="M67.87853166762886 1158.041618528295 C200.4031131959748 1157.9641657416023, 332.82039379782793 1158.1294998340793, 431.89358797725674 1158.0486204447864 M431.8907553978351 1158.0604535484376 C431.84879636602375 1246.84230109876, 432.10656383513776 1335.8470736249, 431.99733969613106 1437.8721602079536 M432.05957374815296 1438.0095765702265 C295.9390446371735 1438.089629342537, 159.89929427332913 1437.9447349980355, 67.9077255809578 1437.932803434646 M67.84693476886726 1438.0104436014212 C68.142103235826 1352.5968674647502, 68.09702642399961 1267.1192456764188, 68.017325870867 1157.9149965626657" stroke="#334155" stroke-width="1.2266998291015625" fill="none"/></g><text x="86.0" y="1182.0" font-family="&quot;Permanent Marker&quot;, cursive" font-size="14" fill="#4a5568">Confirm</text><g><path d="M89.00566722159556 1216.2714584394644 C193.0979795229596 1215.213938701879, 300.89894454693103 1214.4991524475768, 379.17869056464605 1214.964887564995 M88.45630549631728 1215.649491707644 C147.69331791223567 1215.3283096134533, 205.68099191067844 1215.6848315652633, 379.3984498093863 1216.155375189355" stroke="#718096" stroke-width="1.2" fill="none"/></g><g><path d="M88.34114267882202 1229.631914185874 C184.67347086699394 1230.0532700587432, 280.4620044025831 1229.9970126904548, 353.9972627202228 1230.4179547408967 M87.44007171278533 1230.4289584523697 C147.7893530589125 1231.4080432402168, 207.17046603915358 1230.160118801398, 353.7321683889428 1230.0080389523878" stroke="#718096" stroke-width="1.2" fill="none"/></g><g><path d="M87.59762586667863 1242.9207479161541 C176.36487706657593 1241.5154152535167, 262.5154747529217 1242.1941854899846, 328.8992282840804 1243.3685468729846 M87.64379630026365 1243.9619179944702 C146.73975799229103 1242.9907270984108, 205.18735021447657 1242.6285727909988, 328.0948938181781 1243.8436159817581" stroke="#718096" stroke-width="1.2" fill="none"/></g><g><path d="M86.95615974407515 1258.804521515906 C193.72410332153373 1258.7878470321075, 301.09789575562496 1257.666527025713, 378.95104416287904 1258.8642167322814 M87.8907545285718 1257.5262154097861 C165.36660639182287 1257.6753229283017, 243.79104334089524 1257.0101323248534, 380.1510520043884 1257.7120484095678" stroke="#718096" stroke-width="1.2" fill="none"/></g></g><g data-kind="text" data-id="copy"><text x="92.0" y="1218.0" font-family="&quot;Permanent Marker&quot;, cursive" font-size="13" fill="#334155">Confirm Invite</text><g><path d="M91.48338077821708 1233.2014337007836 C173.4973141261598 1232.346378062031, 251.68743700325427 1234.1634012298655, 375.98225803953824 1231.6519638917052 M92.01601085593764 1232.2003359574758 C159.1509801900375 1231.4412860773045, 226.5383868534687 1231.7472545891192, 376.8668058465368 1231.7071112317421" stroke="#718096" stroke-width="1.2" fill="none"/></g><g><path d="M90.72205005922635 1246.6038051901164 C164.93934981607762 1246.2804777870424, 238.28575178059398 1246.3432840098426, 351.4525579215448 1247.1664867074514 M92.24215611791698 1245.7399536601154 C158.3585084781291 1246.3143375796126, 225.09959344428444 1246.2720421925058, 350.59945996006707 1245.532376365953" stroke="#718096" stroke-width="1.2" fill="none"/></g><g><path d="M92.58309985886996 1259.9363231081627 C158.9241857223443 1261.0727236476137, 224.98068659181322 1259.1862478812693, 327.0041921153315 1260.142875374293 M92.49198790016561 1260.5797027183773 C157.79840489948282 1261.0885512260677, 222.7898136463815 1260.659585337916, 325.57527843276563 1259.3409766611596" stroke="#718096" stroke-width="1.2" fill="none"/></g><g><path d="M91.8307073111259 1273.3133098865044 C171.70358525321217 1272.473315573816, 251.88926268606767 1271.4475289277013, 375.75095581922153 1273.1520473054024 M91.44137759344645 1274.0750799411906 C177.56179647541703 1272.5919068195792, 262.5232518938721 1273.074628620317, 376.4166205009051 1274.4715387075955" stroke="#718096" stroke-width="1.2" fill="none"/></g></g><g data-kind="button" data-id="send"><g><path d="M92.00237400689622 1304.1805501686065 L408.03656624679644 1303.8271897359468 L407.6840446745806 1353.7857942970134 L91.66344960540883 1353.963231791412" stroke="none" stroke-width="0" fill="#f8fafc22"/><path d="M92.1070937058848 1304.021087071882 C202.13671519772143 1304.0254675732913, 312.027565982445 1303.8459306016453, 408.14354330702895 1304.0598399892383 M408.0988756558283 1304.0810793636958 C407.8279322963933 1321.2351533136866, 408.14687123851854 1339.326679728403, 407.6879751203811 1354.1825339629393 M407.7861127128334 1354.0078871989124 C334.6682580485029 1353.8472965171534, 261.3419166515231 1354.032540993874, 92.10950435854292 1353.9251910217254 M91.6606498249541 1353.66144059376 C91.6971872285811 1336.1592428194062, 92.27245561786535 1318.3266253651234, 91.8092372585743 1304.0670870578326" stroke="#334155" stroke-width="1.285992431640625" fill="none"/></g><text class="scrawl-label" x="250" y="1330" text-anchor="middle" dominant-baseline="central" font-family="&quot;Permanent Marker&quot;, cursive" font-size="15" fill="#1a202c">Send</text></g></g></svg>